<?xml version="1.0" encoding="utf-8"?>
<!-- Generator: Adobe Illustrator 20.0.0, SVG Export Plug-In . SVG Version: 6.00 Build 0)  -->
<svg version="1.1" id="Livello_1" xmlns="http://www.w3.org/2000/svg" xmlns:xlink="http://www.w3.org/1999/xlink" x="0px" y="0px"
	 viewBox="0 0 64 64" style="enable-background:new 0 0 64 64;" xml:space="preserve">
<style type="text/css">
	.st0{fill:#FFFFFF;}
</style>
<g id="camper">
</g>
<g id="dormire">
</g>
<g id="mal_di_mare">
</g>
<g id="famiglia">
</g>
<g id="mangiare">
</g>
<g id="wi-fi">
</g>
<g id="divertimento">
</g>
<g id="disabili">
</g>
<g id="al_mare">
</g>
<g id="sportiva">
</g>
<g id="culinaria">
</g>
<g id="traghetto">
</g>
<g id="culturale">
</g>
<g id="nella_natura">
</g>
<g id="Layer_15">
</g>
<g id="rotte">
</g>
<g id="pin">
</g>
<g id="categorie">
</g>
<g id="vacanza">
</g>
<g id="menu">
</g>
<g id="rimborso">
</g>
<g id="in_viaggio">
</g>
<g id="moby_club">
</g>
<g id="Layer_75">
</g>
<g id="Layer_76">
</g>
<g id="Layer_77">
</g>
<g id="call_center">
</g>
<g id="Layer_73">
</g>
<g id="passeggero">
</g>
<g id="poltrona">
</g>
<g id="auto">
</g>
<g id="cabina">
</g>
<g id="lunghezza">
</g>
<g id="altezza">
</g>
<g id="larghezza">
</g>
<g id="andata">
</g>
<g id="ritorno">
</g>
<g id="sconto">
</g>
<g id="allegato">
</g>
<g id="certificato">
</g>
<g id="ricerca">
</g>
<g id="accedi">
</g>
<g id="registrati">
</g>
<g id="virtual_tour">
</g>
<g id="ristorante">
</g>
<g id="pizzeria">
</g>
<g id="lounge">
</g>
<g id="caffetteria">
</g>
<g id="gelateria">
</g>
<g id="piscina">
</g>
<g id="maxischermo">
</g>
<g id="shopping">
</g>
<g id="sala_giochi">
</g>
<g id="eliporto">
</g>
<g id="aria_condizionata">
</g>
<g id="solarium">
</g>
<g id="area_bimbi">
</g>
<g id="snack_bar">
</g>
<g id="lido_bar">
</g>
<g id="animali">
</g>
<g id="antenna">
</g>
<g id="filodiffusione">
</g>
<g id="phon">
</g>
<g id="suite">
</g>
<g id="download">
</g>
<g id="moto">
</g>
<g id="calendario">
</g>
<g id="info">
</g>
<g id="_x2A_">
</g>
<g id="_x21_">
</g>
<g id="facebook">
</g>
<g id="twitter">
</g>
<g id="google__x2B_">
</g>
<g id="pinterest">
</g>
<g id="mail">
</g>
<g id="instagram">
	<g>
		<path class="st0" d="M42.2,29.6c0.1,0.6,0.2,1.1,0.2,1.8c0,5.8-4.7,10.5-10.5,10.5s-10.5-4.7-10.5-10.5c0-0.6,0-1.2,0.2-1.8h-3.7
			v15c0,0.4,0.3,0.9,0.8,0.9h0.1h26.4c0.4,0,0.9-0.3,0.9-0.8v-0.1l-0.2-15C45.9,29.6,42.2,29.6,42.2,29.6z"/>
		<path class="st0" d="M31.6,38.6c3.9,0,7.1-3.1,7.2-7.1c0-4-3.1-7.2-7.1-7.2s-7.1,3.1-7.2,7.1C24.6,35.4,27.7,38.5,31.6,38.6z"/>
		<path class="st0" d="M41.4,22.6L41.4,22.6H45c0.4,0,0.9-0.3,0.9-0.8v-0.1v-3.6c0-0.4-0.3-0.9-0.8-0.9H45h-3.5
			c-0.4,0-0.9,0.3-0.9,0.8v0.1v3.6C40.6,22.1,40.9,22.6,41.4,22.6z"/>
		<path class="st0" d="M31.4,0.2C13.9,0.3-0.1,14.6,0,32.1c0,0.2,0,0.3,0,0.6C0.4,50.3,14.9,64.4,32.5,64s31.7-14.9,31.4-32.5
			S49-0.2,31.4,0.2z M49.3,45.5c0,1.9-1.6,3.6-3.5,3.6H17.7c-1.9,0-3.5-1.6-3.5-3.6V17.2c0-1.9,1.6-3.5,3.5-3.6h28.1l3.5,3.6
			C49.3,17.2,49.3,45.5,49.3,45.5z"/>
	</g>
</g>
<g id="assistenza">
</g>
<g id="biglietti">
</g>
</svg>
