<?xml version="1.0" encoding="utf-8"?>
<!-- Generator: Adobe Illustrator 20.0.0, SVG Export Plug-In . SVG Version: 6.00 Build 0)  -->
<svg version="1.1" id="Livello_1" xmlns="http://www.w3.org/2000/svg" xmlns:xlink="http://www.w3.org/1999/xlink" x="0px" y="0px"
	 viewBox="0 0 64 64" style="enable-background:new 0 0 64 64;" xml:space="preserve">
<style type="text/css">
	.st0{fill:#FFFFFF;}
</style>
<g id="camper">
</g>
<g id="dormire">
</g>
<g id="mal_di_mare">
</g>
<g id="famiglia">
</g>
<g id="mangiare">
</g>
<g id="wi-fi">
</g>
<g id="divertimento">
</g>
<g id="disabili">
</g>
<g id="al_mare">
</g>
<g id="sportiva">
</g>
<g id="culinaria">
</g>
<g id="traghetto">
</g>
<g id="culturale">
</g>
<g id="nella_natura">
</g>
<g id="Layer_15">
</g>
<g id="rotte">
</g>
<g id="pin">
</g>
<g id="categorie">
</g>
<g id="vacanza">
</g>
<g id="menu">
</g>
<g id="rimborso">
</g>
<g id="in_viaggio">
</g>
<g id="moby_club">
</g>
<g id="Layer_75">
</g>
<g id="Layer_76">
</g>
<g id="Layer_77">
</g>
<g id="call_center">
</g>
<g id="Layer_73">
</g>
<g id="passeggero">
</g>
<g id="poltrona">
</g>
<g id="auto">
</g>
<g id="cabina">
</g>
<g id="lunghezza">
</g>
<g id="altezza">
</g>
<g id="larghezza">
</g>
<g id="andata">
</g>
<g id="ritorno">
</g>
<g id="sconto">
</g>
<g id="allegato">
</g>
<g id="certificato">
</g>
<g id="ricerca">
	<g>
		<path id="Shape_22_copy_3" class="st0" d="M61.9,51.9L45.8,36.4c-0.1,1.2-1.2,3.6-3.4,5.7c-2.2,2.2-5.3,3.7-6.3,3.6l16.1,15.5l0,0
			c1.3,1.3,3.1,2,4.8,2c3.7,0.1,6.8-2.9,6.8-6.5C64,54.9,63.3,53.2,61.9,51.9L61.9,51.9"/>
		<path class="st0" d="M23.1,0.8c-12.4-0.2-22.7,9.7-23,22.1s9.7,22.7,22.1,23c13.4,0,23-9.1,23-22.5C45.2,11,35.4,1.1,23.1,0.8z
			 M22.2,42.1C12,41.9,3.9,33.6,3.9,23.4C4,12.8,12.6,4.4,23,4.6c10.3,0.2,18.6,8.7,18.4,19.2C41.2,34.1,32.7,42.4,22.2,42.1z"/>
	</g>
</g>
<g id="accedi">
</g>
<g id="registrati">
</g>
<g id="virtual_tour">
</g>
<g id="ristorante">
</g>
<g id="pizzeria">
</g>
<g id="lounge">
</g>
<g id="caffetteria">
</g>
<g id="gelateria">
</g>
<g id="piscina">
</g>
<g id="maxischermo">
</g>
<g id="shopping">
</g>
<g id="sala_giochi">
</g>
<g id="eliporto">
</g>
<g id="aria_condizionata">
</g>
<g id="solarium">
</g>
<g id="area_bimbi">
</g>
<g id="snack_bar">
</g>
<g id="lido_bar">
</g>
<g id="animali">
</g>
<g id="antenna">
</g>
<g id="filodiffusione">
</g>
<g id="phon">
</g>
<g id="suite">
</g>
<g id="download">
</g>
<g id="moto">
</g>
<g id="calendario">
</g>
<g id="info">
</g>
<g id="_x2A_">
</g>
<g id="_x21_">
</g>
<g id="facebook">
</g>
<g id="twitter">
</g>
<g id="google__x2B_">
</g>
<g id="pinterest">
</g>
<g id="mail">
</g>
<g id="instagram">
</g>
<g id="assistenza">
</g>
<g id="biglietti">
</g>
</svg>
