<?xml version="1.0" encoding="utf-8"?>
<!-- Generator: Adobe Illustrator 20.0.0, SVG Export Plug-In . SVG Version: 6.00 Build 0)  -->
<svg version="1.1" id="Livello_1" xmlns="http://www.w3.org/2000/svg" xmlns:xlink="http://www.w3.org/1999/xlink" x="0px" y="0px"
	 viewBox="0 0 64 64" style="enable-background:new 0 0 64 64;" xml:space="preserve">
<style type="text/css">
	.st0{fill:#FFFFFF;}
</style>
<g id="camper">
</g>
<g id="dormire">
</g>
<g id="mal_di_mare">
</g>
<g id="famiglia">
</g>
<g id="mangiare">
</g>
<g id="wi-fi">
</g>
<g id="divertimento">
</g>
<g id="disabili">
</g>
<g id="al_mare">
</g>
<g id="sportiva">
</g>
<g id="culinaria">
</g>
<g id="traghetto">
</g>
<g id="culturale">
</g>
<g id="nella_natura">
</g>
<g id="Layer_15">
</g>
<g id="rotte">
</g>
<g id="pin">
</g>
<g id="categorie">
</g>
<g id="vacanza">
</g>
<g id="menu">
</g>
<g id="rimborso">
</g>
<g id="in_viaggio">
</g>
<g id="moby_club">
</g>
<g id="Layer_75">
</g>
<g id="Layer_76">
</g>
<g id="Layer_77">
</g>
<g id="call_center">
	<g id="CALL_CENTER">
		<path id="Shape_33_copy_8" class="st0" d="M62.4,50.4l-9.9-9.9c-2-1.9-5.2-1.9-7.3,0.1l-4.9,5c-0.3-0.2-0.7-0.3-1-0.6
			c-4.4-2.3-8.4-5.2-11.9-8.6c-3.4-3.5-6.4-7.6-8.6-11.9c-0.2-0.3-0.3-0.7-0.6-0.9l3.3-3.3l1.6-1.6c2-1.9,2-5.2,0.1-7.3l-9.9-9.9
			c-2-1.9-5.2-1.9-7.3,0.1l-2.5,3l0.1,0.1C2.7,5.9,1.9,7.3,1.3,8.8c-0.5,1.4-0.8,2.7-1,4.1C-1,23.6,3.9,33.5,17.2,46.8
			c18.4,18.5,33.2,17,33.9,17c1.4-0.1,2.7-0.6,4.1-1c1.5-0.6,2.8-1.4,4-2.3h0.1l2.8-2.7C64.4,55.6,64.5,52.4,62.4,50.4z"/>
	</g>
</g>
<g id="Layer_73">
</g>
<g id="passeggero">
</g>
<g id="poltrona">
</g>
<g id="auto">
</g>
<g id="cabina">
</g>
<g id="lunghezza">
</g>
<g id="altezza">
</g>
<g id="larghezza">
</g>
<g id="andata">
</g>
<g id="ritorno">
</g>
<g id="sconto">
</g>
<g id="allegato">
</g>
<g id="certificato">
</g>
<g id="ricerca">
</g>
<g id="accedi">
</g>
<g id="registrati">
</g>
<g id="virtual_tour">
</g>
<g id="ristorante">
</g>
<g id="pizzeria">
</g>
<g id="lounge">
</g>
<g id="caffetteria">
</g>
<g id="gelateria">
</g>
<g id="piscina">
</g>
<g id="maxischermo">
</g>
<g id="shopping">
</g>
<g id="sala_giochi">
</g>
<g id="eliporto">
</g>
<g id="aria_condizionata">
</g>
<g id="solarium">
</g>
<g id="area_bimbi">
</g>
<g id="snack_bar">
</g>
<g id="lido_bar">
</g>
<g id="animali">
</g>
<g id="antenna">
</g>
<g id="filodiffusione">
</g>
<g id="phon">
</g>
<g id="suite">
</g>
<g id="download">
</g>
<g id="moto">
</g>
<g id="calendario">
</g>
<g id="info">
</g>
<g id="_x2A_">
</g>
<g id="_x21_">
</g>
<g id="facebook">
</g>
<g id="twitter">
</g>
<g id="google__x2B_">
</g>
<g id="pinterest">
</g>
<g id="mail">
</g>
<g id="instagram">
</g>
<g id="assistenza">
</g>
<g id="biglietti">
</g>
</svg>
