<?xml version="1.0" encoding="utf-8"?>
<!-- Generator: Adobe Illustrator 20.0.0, SVG Export Plug-In . SVG Version: 6.00 Build 0)  -->
<svg version="1.1" id="Livello_1" xmlns="http://www.w3.org/2000/svg" xmlns:xlink="http://www.w3.org/1999/xlink" x="0px" y="0px"
	 viewBox="0 0 64 64" style="enable-background:new 0 0 64 64;" xml:space="preserve">
<style type="text/css">
	.st0{fill:#FFFFFF;}
</style>
<g id="camper">
</g>
<g id="dormire">
</g>
<g id="mal_di_mare">
</g>
<g id="famiglia">
</g>
<g id="mangiare">
</g>
<g id="wi-fi">
</g>
<g id="divertimento">
</g>
<g id="disabili">
</g>
<g id="al_mare">
</g>
<g id="sportiva">
</g>
<g id="culinaria">
</g>
<g id="traghetto">
</g>
<g id="culturale">
</g>
<g id="nella_natura">
</g>
<g id="Layer_15">
</g>
<g id="rotte">
</g>
<g id="pin">
</g>
<g id="categorie">
</g>
<g id="vacanza">
</g>
<g id="menu">
</g>
<g id="rimborso">
</g>
<g id="in_viaggio">
</g>
<g id="moby_club">
</g>
<g id="Layer_75">
</g>
<g id="Layer_76">
</g>
<g id="Layer_77">
</g>
<g id="call_center">
</g>
<g id="Layer_73">
</g>
<g id="passeggero">
</g>
<g id="poltrona">
</g>
<g id="auto">
</g>
<g id="cabina">
</g>
<g id="lunghezza">
</g>
<g id="altezza">
</g>
<g id="larghezza">
</g>
<g id="andata">
</g>
<g id="ritorno">
</g>
<g id="sconto">
</g>
<g id="allegato">
</g>
<g id="certificato">
</g>
<g id="ricerca">
</g>
<g id="accedi">
</g>
<g id="registrati">
</g>
<g id="virtual_tour">
</g>
<g id="ristorante">
</g>
<g id="pizzeria">
</g>
<g id="lounge">
</g>
<g id="caffetteria">
</g>
<g id="gelateria">
</g>
<g id="piscina">
</g>
<g id="maxischermo">
</g>
<g id="shopping">
</g>
<g id="sala_giochi">
</g>
<g id="eliporto">
</g>
<g id="aria_condizionata">
</g>
<g id="solarium">
</g>
<g id="area_bimbi">
</g>
<g id="snack_bar">
</g>
<g id="lido_bar">
</g>
<g id="animali">
</g>
<g id="antenna">
</g>
<g id="filodiffusione">
</g>
<g id="phon">
</g>
<g id="suite">
</g>
<g id="download">
</g>
<g id="moto">
</g>
<g id="calendario">
</g>
<g id="info">
</g>
<g id="_x2A_">
</g>
<g id="_x21_">
</g>
<g id="facebook">
</g>
<g id="twitter">
	<g id="TWITTER">
		<path id="Ellipse_7_copy_13" class="st0" d="M32.2,0.1C49.8,0.2,64,14.5,63.9,32.2C63.8,49.8,49.5,64,31.8,63.9
			C14.3,63.8,0.1,49.5,0.1,32.1C0.1,14.4,14.5,0.1,32.2,0.1z M51.5,15.3c-1.7,0.9-3.6,1.5-5.4,1.9c-4.8-6-17-1.2-14.7,7.5
			c-8.3-0.7-13.5-4.4-17.7-8.9c-2.3,3.8-0.3,9.8,2.6,11.4c-1.2,0-2.5-0.3-3.5-0.9c0.3,5.1,2.9,7.3,6.8,8.6c-1.1,0.1-2.4,0.1-3.5,0
			c1.1,3.5,4.4,6,8,6c-3.6,2.7-8,3.9-12.5,3.5c3.8,2.3,8,4.2,13.7,3.8C39.4,47.5,48.7,37.3,49,22.8c1.6-1.2,3.2-2.5,3.5-4.2
			c-1.5,0.6-2.9,1-4.5,1.2C49.6,18.9,50.8,17.3,51.5,15.3L51.5,15.3z"/>
	</g>
</g>
<g id="google__x2B_">
</g>
<g id="pinterest">
</g>
<g id="mail">
</g>
<g id="instagram">
</g>
<g id="assistenza">
</g>
<g id="biglietti">
</g>
</svg>
