<?xml version="1.0" encoding="utf-8"?>
<!-- Generator: Adobe Illustrator 22.1.0, SVG Export Plug-In . SVG Version: 6.00 Build 0)  -->
<svg version="1.1" id="Livello_1" xmlns="http://www.w3.org/2000/svg" xmlns:xlink="http://www.w3.org/1999/xlink" x="0px" y="0px"
	 viewBox="0 0 793.4 180.9" style="enable-background:new 0 0 793.4 180.9;" xml:space="preserve">
<style type="text/css">
	.st0{fill:#005384;}
	.st1{fill:#009544;}
	.st2{fill:#EDEDED;}
	.st3{fill:#BC1A28;}
</style>
<title>logo-tirrenia</title>
<polygon class="st0" points="160.6,53.8 111.6,53.8 129.8,0 80.5,0 60.8,53.8 15.3,53.8 10.2,69.9 154.5,69.9 "/>
<path class="st0" d="M96.9,97.4h48.9l6-16.9H6.7L0.6,97.4h45.3c-5.1,12-6.7,17.4-6.8,28.2c-0.1,14.8,7.1,25.3,24,25.5h64l12.9-36
	H99.5C88.5,115.1,95.5,101.2,96.9,97.4z"/>
<polygon class="st0" points="174.6,54.1 140.2,151 188.4,151 222.6,54.1 "/>
<polygon class="st0" points="240.7,1.6 192.8,1.6 182.6,30.5 230.4,30.5 "/>
<path class="st0" d="M286.9,93.2l13.7-38.7h-34.6c-22.8,0-32.4,14-35.9,18.6c-3.1,4-6.1,14.1-10.5,25.8c-8.5,23-18.5,52.1-18.5,52.1
	h47.4l18.6-52C270.3,91,286.9,93.2,286.9,93.2z"/>
<path class="st0" d="M562.1,51.2c-20.9-1-28.2,0.5-28.2,0.5c-37.4,0.9-48.6,43.5-48.6,43.5l-19.4,55.8h49.1l19-54.6
	c4.1-10.2,17.9-9.7,14.6,0c-0.4,3.5-18.7,54.6-18.7,54.6h46.5l19.8-55.8C595.7,88.8,616.2,57.5,562.1,51.2z"/>
<polygon class="st0" points="623.7,54.1 589.3,151 637.5,151 672,54 "/>
<polygon class="st0" points="689.8,1.5 641.9,1.5 632,30.4 679.7,30.4 "/>
<path class="st0" d="M336.7,54.5c-22.8,0-32.4,14-35.9,18.6c-3.1,4-6.1,14.1-10.5,25.8c-8.5,23-18.5,52.1-18.5,52.1h47.4l18.6-52
	c3.2-8,19.9-5.7,19.9-5.7l13.7-38.7L336.7,54.5L336.7,54.5z"/>
<path class="st0" d="M406.9,109.8h63l4.5-11.6c3.6-9.2,4.6-13.6,4-22.4c-0.6-10.4-8.1-17.2-18-20.6c-12.6-4.4-19.1-4.3-31.4-4.2
	c-11.9,0.1-19.2-0.1-30.2,4.4c-20.2,8.3-29.9,22.4-36.4,42.7c-6.8,20.9-3.2,33.1,6.4,44.2c5.5,6.4,16.6,9,25.9,9
	c12.4-0.1,38,0,59.3-0.2l11.1-31.1h-52.2C401.3,120.2,406.9,109.8,406.9,109.8z M424,82.2c10.7,0,8,6.8,6.3,12.3H412
	C413.7,88.6,415.1,82.2,424,82.2z"/>
<path class="st0" d="M716.1,54.2c-48.5,0-80.7,96.6-17.4,97.1h59.6l34.5-97.2L716.1,54.2z M727.3,112.9h-9.7
	c-13.5,0-6.6-20.3,5.5-20.2h11.3L727.3,112.9z"/>
<path class="st0" d="M719,112.9h-4.5C715.6,113.1,724.4,113,719,112.9z"/>
<rect y="178.8" class="st1" width="265.1" height="2.1"/>
<rect x="264.1" y="178.8" class="st2" width="265.1" height="2.1"/>
<rect x="528.3" y="178.8" class="st3" width="265" height="2.1"/>
</svg>
